C:\Users\Nicos\Documents\OpenSimProjects\SprintingProject\Study1\PredictiveResults\IC_pred_Sprinting_optimum_27-October-2023__11-55-39_p02_maxVel_01___IKTD_Minus_2_GRF.mot
version=1
nRows=4
nColumns=127
inDegrees=yes
endheader
time	ground_force_vx	ground_force_vy	ground_force_vz	ground_force_px	ground_force_py	ground_force_pz	ground_torque_x	ground_torque_y	ground_torque_z	1_ground_force_vx	1_ground_force_vy	1_ground_force_vz	1_ground_force_px	1_ground_force_py	1_ground_force_pz	1_ground_torque_x	1_ground_torque_y	1_ground_torque_z	2_ground_force_vx	2_ground_force_vy	2_ground_force_vz	2_ground_force_px	2_ground_force_py	2_ground_force_pz	2_ground_torque_x	2_ground_torque_y	2_ground_torque_z	3_ground_force_vx	3_ground_force_vy	3_ground_force_vz	3_ground_force_px	3_ground_force_py	3_ground_force_pz	3_ground_torque_x	3_ground_torque_y	3_ground_torque_z	4_ground_force_vx	4_ground_force_vy	4_ground_force_vz	4_ground_force_px	4_ground_force_py	4_ground_force_pz	4_ground_torque_x	4_ground_torque_y	4_ground_torque_z	5_ground_force_vx	5_ground_force_vy	5_ground_force_vz	5_ground_force_px	5_ground_force_py	5_ground_force_pz	5_ground_torque_x	5_ground_torque_y	5_ground_torque_z	6_ground_force_vx	6_ground_force_vy	6_ground_force_vz	6_ground_force_px	6_ground_force_py	6_ground_force_pz	6_ground_torque_x	6_ground_torque_y	6_ground_torque_z	7_ground_force_vx	7_ground_force_vy	7_ground_force_vz	7_ground_force_px	7_ground_force_py	7_ground_force_pz	7_ground_torque_x	7_ground_torque_y	7_ground_torque_z	8_ground_force_vx	8_ground_force_vy	8_ground_force_vz	8_ground_force_px	8_ground_force_py	8_ground_force_pz	8_ground_torque_x	8_ground_torque_y	8_ground_torque_z	9_ground_force_vx	9_ground_force_vy	9_ground_force_vz	9_ground_force_px	9_ground_force_py	9_ground_force_pz	9_ground_torque_x	9_ground_torque_y	9_ground_torque_z	10_ground_force_vx	10_ground_force_vy	10_ground_force_vz	10_ground_force_px	10_ground_force_py	10_ground_force_pz	10_ground_torque_x	10_ground_torque_y	10_ground_torque_z	11_ground_force_vx	11_ground_force_vy	11_ground_force_vz	11_ground_force_px	11_ground_force_py	11_ground_force_pz	11_ground_torque_x	11_ground_torque_y	11_ground_torque_z	12_ground_force_vx	12_ground_force_vy	12_ground_force_vz	12_ground_force_px	12_ground_force_py	12_ground_force_pz	12_ground_torque_x	12_ground_torque_y	12_ground_torque_z	13_ground_force_vx	13_ground_force_vy	13_ground_force_vz	13_ground_force_px	13_ground_force_py	13_ground_force_pz	13_ground_torque_x	13_ground_torque_y	13_ground_torque_z
0.056000	-74.826462	39.317480	12.329742	0.359454	-0.001770	0.450640	0.000000	0.000000	0.000000	-0.912228	0.487058	0.155568	0.316198	0.004720	0.471320	0.000000	0.000000	0.000000	-0.020860	0.011798	0.005089	0.289557	0.008535	0.465219	0.000000	0.000000	0.000000	-0.327586	0.182343	0.080055	0.292480	0.005766	0.443372	0.000000	0.000000	0.000000	-0.000000	0.000000	0.000000	0.205679	0.019611	0.495195	0.000000	0.000000	0.000000	-0.002337	0.001321	0.000607	0.260273	0.010633	0.460238	0.000000	0.000000	0.000000	-0.000000	0.000000	0.000000	0.143135	0.019024	0.440315	0.000000	0.000000	0.000000	-0.000000	0.000000	0.000000	-0.487129	0.221866	0.138267	0.000000	0.000000	0.000000	-0.000000	0.000000	0.000000	-0.470402	0.244074	0.123614	0.000000	0.000000	0.000000	-0.000000	0.000000	0.000000	-0.461302	0.256279	0.132417	0.000000	0.000000	0.000000	-0.000000	0.000000	0.000000	-0.468537	0.253775	0.153371	0.000000	0.000000	0.000000	-0.000000	0.000000	0.000000	-0.433836	0.299039	0.113530	0.000000	0.000000	0.000000	-0.000000	0.000000	0.000000	-0.456375	0.270455	0.140894	0.000000	0.000000	0.000000	-0.000000	0.000000	0.000000	-0.436664	0.327160	0.174799	0.000000	0.000000	0.000000
0.056647	-110.455566	58.547017	15.772964	0.362781	-0.002526	0.450182	0.000000	0.000000	0.000000	-2.084082	1.123657	0.316207	0.319414	0.003761	0.470881	0.000000	0.000000	0.000000	-0.059423	0.033795	0.013143	0.292632	0.007495	0.464699	0.000000	0.000000	0.000000	-0.785182	0.439217	0.173574	0.295626	0.004821	0.442815	0.000000	0.000000	0.000000	-0.000001	0.000000	0.000000	0.208603	0.018296	0.494656	0.000000	0.000000	0.000000	-0.007162	0.004071	0.001706	0.263344	0.009560	0.459683	0.000000	0.000000	0.000000	-0.000001	0.000001	0.000000	0.146193	0.017821	0.439618	0.000000	0.000000	0.000000	-0.000000	0.000000	0.000000	-0.475410	0.221637	0.137689	0.000000	0.000000	0.000000	-0.000000	0.000000	0.000000	-0.458905	0.243894	0.123085	0.000000	0.000000	0.000000	-0.000000	0.000000	0.000000	-0.450013	0.256156	0.131974	0.000000	0.000000	0.000000	-0.000000	0.000000	0.000000	-0.457278	0.253632	0.152907	0.000000	0.000000	0.000000	-0.000000	0.000000	0.000000	-0.422913	0.298986	0.113189	0.000000	0.000000	0.000000	-0.000000	0.000000	0.000000	-0.445245	0.270343	0.140473	0.000000	0.000000	0.000000	-0.000000	0.000000	0.000000	-0.426176	0.327089	0.174470	0.000000	0.000000	0.000000
0.058692	-232.868729	128.975292	10.517545	0.372971	-0.004723	0.449366	0.000000	0.000000	0.000000	-13.202558	7.465594	0.871045	0.329232	0.000944	0.470000	0.000000	0.000000	0.000000	-1.087655	0.644506	0.145695	0.302048	0.004399	0.463516	0.000000	0.000000	0.000000	-7.306972	4.244038	0.965364	0.305292	0.001977	0.441550	0.000000	0.000000	0.000000	-0.000041	0.000025	0.000008	0.217495	0.014323	0.493209	0.000000	0.000000	0.000000	-0.181574	0.107486	0.028656	0.272749	0.006322	0.458341	0.000000	0.000000	0.000000	-0.000060	0.000035	0.000015	0.155554	0.014014	0.437640	0.000000	0.000000	0.000000	-0.000000	0.000000	0.000000	-0.438416	0.220910	0.135924	0.000000	0.000000	0.000000	-0.000000	0.000000	0.000000	-0.422573	0.243313	0.121477	0.000000	0.000000	0.000000	-0.000000	0.000000	0.000000	-0.414274	0.255713	0.130570	0.000000	0.000000	0.000000	-0.000000	0.000000	0.000000	-0.421634	0.253120	0.151438	0.000000	0.000000	0.000000	-0.000000	0.000000	0.000000	-0.388348	0.298757	0.112094	0.000000	0.000000	0.000000	-0.000000	0.000000	0.000000	-0.410017	0.269930	0.139136	0.000000	0.000000	0.000000	-0.000000	0.000000	0.000000	-0.392987	0.326798	0.173399	0.000000	0.000000	0.000000
0.060174	-315.511285	182.646400	-10.473049	0.379959	-0.006142	0.449368	0.000000	0.000000	0.000000	-37.545040	22.237763	-0.206468	0.335934	-0.000911	0.469851	0.000000	0.000000	0.000000	-5.505464	3.433813	0.403601	0.308459	0.002305	0.463077	0.000000	0.000000	0.000000	-19.735568	12.027623	1.393479	0.311906	0.000020	0.441083	0.000000	0.000000	0.000000	-0.000732	0.000476	0.000120	0.223493	0.011605	0.492397	0.000000	0.000000	0.000000	-1.356829	0.844714	0.140388	0.279156	0.004096	0.457741	0.000000	0.000000	0.000000	-0.001124	0.000696	0.000250	0.161942	0.011261	0.436396	0.000000	0.000000	0.000000	-0.000000	0.000000	0.000000	-0.411642	0.220379	0.134693	0.000000	0.000000	0.000000	-0.000000	0.000000	0.000000	-0.396243	0.242878	0.120366	0.000000	0.000000	0.000000	-0.000000	0.000000	0.000000	-0.388311	0.255337	0.129549	0.000000	0.000000	0.000000	-0.000000	0.000000	0.000000	-0.395736	0.252696	0.150368	0.000000	0.000000	0.000000	-0.000000	0.000000	0.000000	-0.363251	0.298532	0.111284	0.000000	0.000000	0.000000	-0.000000	0.000000	0.000000	-0.384427	0.269574	0.138159	0.000000	0.000000	0.000000	-0.000000	0.000000	0.000000	-0.368890	0.326523	0.172597	0.000000	0.000000	0.000000
